<svg width="81" height="77" viewBox="0 0 81 77" fill="none" xmlns="http://www.w3.org/2000/svg">
<path d="M37.6468 2.78115C38.5449 0.0172229 42.4551 0.017221 43.3532 2.78115L50.7154 25.4397C51.117 26.6758 52.2689 27.5127 53.5686 27.5127H77.3932C80.2994 27.5127 81.5077 31.2315 79.1565 32.9397L59.882 46.9435C58.8305 47.7074 58.3906 49.0615 58.7922 50.2976L66.1544 72.9562C67.0525 75.7201 63.889 78.0185 61.5379 76.3103L42.2634 62.3065C41.2119 61.5426 39.7881 61.5426 38.7366 62.3065L19.4621 76.3103C17.111 78.0185 13.9475 75.7201 14.8456 72.9562L22.2078 50.2976C22.6094 49.0615 22.1695 47.7074 21.118 46.9435L1.84345 32.9397C-0.507687 31.2315 0.700643 27.5127 3.60681 27.5127H27.4314C28.7311 27.5127 29.883 26.6758 30.2846 25.4397L37.6468 2.78115Z" fill="#FFA60D"/>
</svg>
